<?xml version="1.0" encoding="UTF-8" standalone="no"?><!DOCTYPE svg PUBLIC "-//W3C//DTD SVG 1.1//EN" "http://www.w3.org/Graphics/SVG/1.1/DTD/svg11.dtd"><!-- Generated by graphviz version 2.40.1 (20161225.0304)
 --><!-- Title: G Pages: 1 --><svg xmlns="http://www.w3.org/2000/svg" xmlns:xlink="http://www.w3.org/1999/xlink" width="203pt" height="163pt" viewBox="0.00 0.00 203.00 163.00">
<g id="graph0" class="graph" transform="scale(1 1) rotate(0) translate(4 159)">
<title>G</title>
<polygon fill="#ffffff" stroke="transparent" points="-4,4 -4,-159 199,-159 199,4 -4,4"/>
<!-- 0 -->
<g id="node1" class="node">
<title>0</title>
<ellipse fill="none" stroke="#000000" cx="53.4845" cy="-18.2664" rx="27" ry="18"/>
<text text-anchor="middle" x="53.4845" y="-14.0664" font-family="Times,serif" font-size="14.00" fill="#000000">0</text>
</g>
<!-- 5 -->
<g id="node2" class="node">
<title>5</title>
<ellipse fill="none" stroke="#000000" cx="134.7224" cy="-25.1386" rx="27" ry="18"/>
<text text-anchor="middle" x="134.7224" y="-20.9386" font-family="Times,serif" font-size="14.00" fill="#000000">5</text>
</g>
<!-- 0&#45;&gt;5 -->
<g id="edge1" class="edge">
<title>0-&gt;5</title>
<path fill="none" stroke="#000000" d="M80.5355,-20.5548C86.0166,-21.0184 91.8701,-21.5136 97.6284,-22.0007"/>
<polygon fill="#000000" stroke="#000000" points="97.53,-25.5048 107.7895,-22.8603 98.1201,-18.5297 97.53,-25.5048"/>
</g>
<!-- 2 -->
<g id="node3" class="node">
<title>2</title>
<ellipse fill="none" stroke="#000000" cx="96.759" cy="-86.8261" rx="27" ry="18"/>
<text text-anchor="middle" x="96.759" y="-82.6261" font-family="Times,serif" font-size="14.00" fill="#000000">2</text>
</g>
<!-- 0&#45;&gt;2 -->
<g id="edge2" class="edge">
<title>0-&gt;2</title>
<path fill="none" stroke="#000000" d="M63.96,-34.8628C68.9879,-42.8284 75.1229,-52.5482 80.721,-61.4173"/>
<polygon fill="#000000" stroke="#000000" points="77.7819,-63.3181 86.0792,-69.9063 83.7013,-59.5817 77.7819,-63.3181"/>
</g>
<!-- 1 -->
<g id="node4" class="node">
<title>1</title>
<ellipse fill="none" stroke="#000000" cx="27.2809" cy="-89.8754" rx="27" ry="18"/>
<text text-anchor="middle" x="27.2809" y="-85.6754" font-family="Times,serif" font-size="14.00" fill="#000000">1</text>
</g>
<!-- 0&#45;&gt;1 -->
<g id="edge3" class="edge">
<title>0-&gt;1</title>
<path fill="none" stroke="#000000" d="M47.0072,-35.9675C44.0561,-44.0322 40.4966,-53.7597 37.2182,-62.7189"/>
<polygon fill="#000000" stroke="#000000" points="33.8333,-61.7842 33.6837,-72.3779 40.407,-64.1897 33.8333,-61.7842"/>
</g>
<!-- 4 -->
<g id="node6" class="node">
<title>4</title>
<ellipse fill="none" stroke="#000000" cx="168.2434" cy="-96.4722" rx="27" ry="18"/>
<text text-anchor="middle" x="168.2434" y="-92.2722" font-family="Times,serif" font-size="14.00" fill="#000000">4</text>
</g>
<!-- 5&#45;&gt;4 -->
<g id="edge9" class="edge">
<title>5-&gt;4</title>
<path fill="none" stroke="#000000" d="M142.8369,-42.4065C146.6909,-50.608 151.3849,-60.5969 155.6846,-69.7466"/>
<polygon fill="#000000" stroke="#000000" points="152.55,-71.3058 159.9708,-78.8678 158.8854,-68.3287 152.55,-71.3058"/>
</g>
<!-- 2&#45;&gt;5 -->
<g id="edge7" class="edge">
<title>2-&gt;5</title>
<path fill="none" stroke="#000000" d="M107.1326,-69.9697C110.8153,-63.9856 115.0465,-57.1103 119.0714,-50.5701"/>
<polygon fill="#000000" stroke="#000000" points="122.1008,-52.3255 124.3612,-41.9746 116.1393,-48.6567 122.1008,-52.3255"/>
</g>
<!-- 3 -->
<g id="node5" class="node">
<title>3</title>
<ellipse fill="none" stroke="#000000" cx="95.2897" cy="-137.3095" rx="27" ry="18"/>
<text text-anchor="middle" x="95.2897" y="-133.1095" font-family="Times,serif" font-size="14.00" fill="#000000">3</text>
</g>
<!-- 2&#45;&gt;3 -->
<g id="edge6" class="edge">
<title>2-&gt;3</title>
<path fill="none" stroke="#000000" d="M96.2285,-105.0518C96.1906,-106.3545 96.1519,-107.6843 96.1129,-109.0257"/>
<polygon fill="#000000" stroke="#000000" points="92.6069,-109.1822 95.8144,-119.2798 99.604,-109.3859 92.6069,-109.1822"/>
</g>
<!-- 1&#45;&gt;2 -->
<g id="edge4" class="edge">
<title>1-&gt;2</title>
<path fill="none" stroke="#000000" d="M54.3419,-88.6878C56.0707,-88.6119 57.8263,-88.5348 59.5903,-88.4574"/>
<polygon fill="#000000" stroke="#000000" points="59.8206,-91.9508 69.6575,-88.0156 59.5137,-84.9575 59.8206,-91.9508"/>
</g>
<!-- 1&#45;&gt;3 -->
<g id="edge5" class="edge">
<title>1-&gt;3</title>
<path fill="none" stroke="#000000" d="M46.2251,-103.0885C53.0049,-107.8172 60.7857,-113.244 68.1233,-118.3618"/>
<polygon fill="#000000" stroke="#000000" points="66.2427,-121.3173 76.447,-124.1673 70.2472,-115.5758 66.2427,-121.3173"/>
</g>
<!-- 3&#45;&gt;4 -->
<g id="edge8" class="edge">
<title>3-&gt;4</title>
<path fill="none" stroke="#000000" d="M116.0002,-125.7164C122.9311,-121.8366 130.8025,-117.4304 138.2942,-113.2368"/>
<polygon fill="#000000" stroke="#000000" points="140.4648,-116.0329 147.4812,-108.0942 137.0457,-109.9247 140.4648,-116.0329"/>
</g>
</g>
</svg>