<?xml version="1.0" encoding="UTF-8" standalone="no"?><!DOCTYPE svg PUBLIC "-//W3C//DTD SVG 1.1//EN" "http://www.w3.org/Graphics/SVG/1.1/DTD/svg11.dtd"><!-- Generated by graphviz version 2.40.1 (20161225.0304)
 --><!-- Title: G Pages: 1 --><svg xmlns="http://www.w3.org/2000/svg" xmlns:xlink="http://www.w3.org/1999/xlink" width="203pt" height="163pt" viewBox="0.00 0.00 203.00 163.00">
<g id="graph0" class="graph" transform="scale(1 1) rotate(0) translate(4 159)">
<title>G</title>
<polygon fill="#ffffff" stroke="transparent" points="-4,4 -4,-159 199,-159 199,4 -4,4"/>
<!-- 0 -->
<g id="node1" class="node">
<title>0</title>
<ellipse fill="none" stroke="#000000" cx="53.4845" cy="-18.2664" rx="27" ry="18"/>
<text text-anchor="middle" x="53.4845" y="-14.0664" font-family="Times,serif" font-size="14.00" fill="#000000">0</text>
</g>
<!-- 5 -->
<g id="node2" class="node">
<title>5</title>
<ellipse fill="none" stroke="#000000" cx="134.7224" cy="-25.1386" rx="27" ry="18"/>
<text text-anchor="middle" x="134.7224" y="-20.9386" font-family="Times,serif" font-size="14.00" fill="#000000">5</text>
</g>
<!-- 0&#45;&gt;5 -->
<g id="edge1" class="edge">
<title>0-&gt;5</title>
<path fill="none" stroke="#000000" d="M80.5355,-20.5548C89.3053,-21.2966 99.0283,-22.1191 107.7895,-22.8603"/>
<text text-anchor="middle" x="87.5355" y="-24.7548" font-family="Times,serif" font-size="14.00" fill="#000000">14</text>
</g>
<!-- 2 -->
<g id="node3" class="node">
<title>2</title>
<ellipse fill="none" stroke="#000000" cx="96.759" cy="-86.8261" rx="27" ry="18"/>
<text text-anchor="middle" x="96.759" y="-82.6261" font-family="Times,serif" font-size="14.00" fill="#000000">2</text>
</g>
<!-- 0&#45;&gt;2 -->
<g id="edge2" class="edge">
<title>0-&gt;2</title>
<path fill="none" stroke="#000000" d="M63.96,-34.8628C70.6638,-45.4836 79.336,-59.223 86.0792,-69.9063"/>
<text text-anchor="middle" x="60.46" y="-39.0628" font-family="Times,serif" font-size="14.00" fill="#000000">9</text>
</g>
<!-- 1 -->
<g id="node4" class="node">
<title>1</title>
<ellipse fill="none" stroke="#000000" cx="27.2809" cy="-89.8754" rx="27" ry="18"/>
<text text-anchor="middle" x="27.2809" y="-85.6754" font-family="Times,serif" font-size="14.00" fill="#000000">1</text>
</g>
<!-- 0&#45;&gt;1 -->
<g id="edge3" class="edge">
<title>0-&gt;1</title>
<path fill="none" stroke="#000000" d="M47.0072,-35.9675C42.9455,-47.0673 37.7311,-61.317 33.6837,-72.3779"/>
<text text-anchor="middle" x="43.5072" y="-40.1675" font-family="Times,serif" font-size="14.00" fill="#000000">7</text>
</g>
<!-- 4 -->
<g id="node6" class="node">
<title>4</title>
<ellipse fill="none" stroke="#000000" cx="168.2434" cy="-96.4722" rx="27" ry="18"/>
<text text-anchor="middle" x="168.2434" y="-92.2722" font-family="Times,serif" font-size="14.00" fill="#000000">4</text>
</g>
<!-- 5&#45;&gt;4 -->
<g id="edge9" class="edge">
<title>5-&gt;4</title>
<path fill="none" stroke="#000000" d="M142.8369,-42.4065C148.0297,-53.457 154.7474,-67.7522 159.9708,-78.8678"/>
<text text-anchor="middle" x="139.3369" y="-46.6065" font-family="Times,serif" font-size="14.00" fill="#000000">9</text>
</g>
<!-- 2&#45;&gt;5 -->
<g id="edge7" class="edge">
<title>2-&gt;5</title>
<path fill="none" stroke="#000000" d="M107.1326,-69.9697C112.4893,-61.2656 119.0064,-50.6759 124.3612,-41.9746"/>
<text text-anchor="middle" x="103.6326" y="-57.3697" font-family="Times,serif" font-size="14.00" fill="#000000">2</text>
</g>
<!-- 3 -->
<g id="node5" class="node">
<title>3</title>
<ellipse fill="none" stroke="#000000" cx="95.2897" cy="-137.3095" rx="27" ry="18"/>
<text text-anchor="middle" x="95.2897" y="-133.1095" font-family="Times,serif" font-size="14.00" fill="#000000">3</text>
</g>
<!-- 2&#45;&gt;3 -->
<g id="edge6" class="edge">
<title>2-&gt;3</title>
<path fill="none" stroke="#000000" d="M96.2285,-105.0518C96.0937,-109.6836 95.9489,-114.6578 95.8144,-119.2798"/>
<text text-anchor="middle" x="89.2285" y="-109.2518" font-family="Times,serif" font-size="14.00" fill="#000000">11</text>
</g>
<!-- 1&#45;&gt;2 -->
<g id="edge4" class="edge">
<title>1-&gt;2</title>
<path fill="none" stroke="#000000" d="M54.3419,-88.6878C59.3713,-88.467 64.6268,-88.2364 69.6575,-88.0156"/>
<text text-anchor="middle" x="61.3419" y="-92.8878" font-family="Times,serif" font-size="14.00" fill="#000000">10</text>
</g>
<!-- 1&#45;&gt;3 -->
<g id="edge5" class="edge">
<title>1-&gt;3</title>
<path fill="none" stroke="#000000" d="M46.2251,-103.0885C55.6579,-109.6675 67.0282,-117.598 76.447,-124.1673"/>
<text text-anchor="middle" x="39.2251" y="-107.2885" font-family="Times,serif" font-size="14.00" fill="#000000">15</text>
</g>
<!-- 3&#45;&gt;4 -->
<g id="edge8" class="edge">
<title>3-&gt;4</title>
<path fill="none" stroke="#000000" d="M116.0002,-125.7164C125.8576,-120.1985 137.6171,-113.6158 147.4812,-108.0942"/>
<text text-anchor="middle" x="119.5002" y="-113.1164" font-family="Times,serif" font-size="14.00" fill="#000000">6</text>
</g>
</g>
</svg>